<?xml version="1.0" encoding="utf-8"?>
<!-- Generator: Adobe Illustrator 24.1.1, SVG Export Plug-In . SVG Version: 6.00 Build 0)  -->
<svg version="1.0" id="Layer_1" xmlns="http://www.w3.org/2000/svg" xmlns:xlink="http://www.w3.org/1999/xlink" x="0px" y="0px"
	 viewBox="0 0 1920 1080" style="enable-background:new 0 0 1920 1080;" xml:space="preserve">
<g>
	<path d="M717.76,349.26c0,3.07-3,8.69-14.13,18.19c-4.71,3.99-10.42,8.38-16.84,12.88c1.71,1.53,2.28,2.96,2.71,3.68
		c0.29,0.51,0,0.82-0.29,1.02c-0.57,0.1-1.71-0.1-2.14-0.72c-0.43-0.51-0.86-1.53-2.14-2.76c-0.86,0.61-1.85,1.23-2.85,1.84
		c-0.71,2.25-1.57,4.39-2.14,6.54c-3.71,11.75-9.42,27.49-26.69,34.85c-7.71,3.27-15.7,4.91-23.4,4.91c-9.7,0-18.84-2.55-25.4-7.66
		c-4.14-3.17-6.14-7.05-6.14-11.14c-4.14-1.23-6.56-3.58-8.13-6.23c-0.57-0.92-0.86-2.15-0.86-3.37c0-7.36,9.85-18.7,32.82-25.04
		c9.99-2.86,20.83-4.19,30.82-4.19c10.13,0,19.55,1.43,26.26,3.99c0.57-0.92,1-1.74,1.57-2.45c4.85-7.66,11.56-15.84,19.12-21.26
		c7.56-5.31,13.56-7.26,16.27-5.93C717.05,346.9,717.76,347.72,717.76,349.26z M671.24,375.52c-5.28-1.23-11.42-1.84-17.84-1.84
		c-10.13,0-20.98,1.43-30.4,4.09c-13.7,3.78-31.25,14.1-31.25,23.3c0,1.12,0.29,2.15,0.86,3.27c1.14,2.04,3.14,3.58,5.85,4.5
		c0.86-7.05,7.28-14.61,17.55-20.34c9.99-5.52,20.55-8.18,29.11-8.18c6.14,0,11.27,1.33,14.27,4.19c1.71,1.63,2.43,3.47,2.43,5.31
		c0,1.33-0.43,2.55-1,3.68c4.28-2.15,8.42-4.5,12.42-6.85c2-3.37,3.57-6.44,5.14-8.99C676.38,376.85,674.09,376.13,671.24,375.52z
		 M658.54,396.88c-2.28,2.86-5.42,5.42-8.13,7.56c-6.56,5.11-12.84,7.05-14.41,7.56c-0.71,0.2-1.43,0.1-1.57-0.31
		c-0.14-0.41,0.29-0.92,2-1.53c3.14-1.23,10.42-4.7,14.56-8.38c0.71-0.61,1.57-1.53,2.57-2.45c-7.71,3.58-15.7,6.54-23.69,8.79
		c-9.99,2.76-17.41,3.88-23.12,3.88c-2,0-3.85-0.1-5.42-0.41c0,2.96,1.28,5.82,4.14,8.28c3.42,2.96,8.56,4.39,14.41,4.39
		c9.56,0,21.26-3.78,30.97-10.73c8.42-6.13,14.98-15.02,20.12-23.2C666.96,392.58,662.82,394.83,658.54,396.88z M659.25,389.21
		c0-1.64-0.86-3.27-2.71-4.5c-2-1.33-5.14-1.94-8.85-1.94c-9.7,0-23.55,3.99-31.96,9.71c-7.42,4.8-13.13,11.14-14.13,17.17
		c1.71,0.31,3.71,0.51,5.85,0.51c10.27,0,23.97-3.58,37.53-9.2c3.85-1.53,7.71-3.37,11.56-5.31
		C658.11,393.5,659.25,391.25,659.25,389.21z M695.64,359.17c-4.28,4.5-8.28,11.55-11.56,19.21c0.43,0.2,0.71,0.41,1,0.61
		c7.13-4.8,13.13-9.4,16.98-12.98c10.13-9.4,14.98-16.04,12.13-17.78C711.2,346.6,702.06,352.32,695.64,359.17z"/>
	<path d="M700.49,418.85c-7.13,5.52-14.98,11.34-20.83,9.2c-2.57-1.02-3.71-2.66-3.71-4.9c0-3.07,2.14-6.95,5.57-11.24
		c4.28-5.21,11.99-12.26,12.84-12.98c0.71-0.72,1.28-1.02,2-0.72s4.42,0.31,5.85,0c1.28-0.31,1.85,0.41,1.28,0.92
		c-0.57,0.51-7.14,7.87-12.99,14.1c-5.99,6.23-11.42,12.47-8.56,13.8c3,1.23,10.56-4.29,16.84-8.99
		c6.42-4.8,17.12-14.41,17.69-15.02c0.29-0.31,1-0.41,1.57-0.2c0.57,0.1,0.86,0.61,0.14,1.33
		C717.33,404.95,707.49,413.33,700.49,418.85z M711.2,387.88c-2.85,0-4.71-1.84-4-4.09c0.86-2.25,3.71-4.09,6.56-4.09
		c3,0,4.71,1.84,4,4.09C717.05,386.04,714.05,387.88,711.2,387.88z"/>
	<path d="M749.58,414.14c-5.28,3.99-13.7,11.34-24.97,16.15c-2,0.82-4.28,1.74-6.71,2.55c-4,5.62-7.13,10.73-10.13,14.2
		c-5.28,6.23-11.56,10.42-15.13,12.06c-2.14,0.92-5.99,2.04-9.85,2.04c-2.43,0-4.71-0.41-6.56-1.64c-2.14-1.43-3.14-3.17-3.14-5.01
		c0-2.76,2.28-5.93,6.42-8.79c6.99-4.9,19.12-8.28,30.68-11.96c0.57-0.2,1.14-0.41,1.57-0.51c4.42-4.5,8.7-9.4,12.13-14.2
		c-3,2.25-5.71,4.19-6.99,5.01c-2.85,1.84-8.56,5.52-13.27,4.19c-2.43-0.61-4.28-2.66-4.28-5.72c0-3.17,1.85-7.36,7.13-12.47
		c6.99-6.64,21.12-14,29.4-12.47c2.57,0.51,3.71,1.63,3.85,3.07c0.57-0.72,1-1.23,1.43-1.53c0.86-0.61,1.14-1.23,2.14-0.92
		c1,0.2,4.85,0.41,6.56-0.1c1.86-0.41,2.14,0.41,1.43,0.92c-0.57,0.41-14.27,10.73-23.12,20.64c-3.28,3.47-6.14,7.26-8.7,10.93
		c5.57-2.15,9.13-3.99,12.99-6.34c5.71-3.37,12.7-8.58,16.41-11.65c3.71-3.07,9.56-8.79,10.13-9.2c0.29-0.31,1.43-0.61,2.14-0.61
		c0.57,0.1,0.86,0.31,0.14,1.12C759.71,405.56,754.72,410.16,749.58,414.14z M684.8,444.39c-8.28,4.39-11.56,9.71-7.85,11.96
		c4.14,2.55,12.41-2.96,21.12-10.42c3.57-2.96,7.42-6.44,11.27-10.32C699.92,438.67,690.08,441.63,684.8,444.39z M715.48,411.79
		c-8.56,8.58-11.56,14.2-9.42,15.12c2.28,1.02,9.7-3.17,18.27-10.42c8.42-7.26,16.41-15.23,11.56-17.68
		C732.32,396.98,724.18,403.21,715.48,411.79z"/>
	<path d="M789.4,418.23c-5.71,4.5-15.7,11.75-21.41,10.22c-3.14-0.82-4.71-2.66-4.71-5.11c0-2.15,1.28-4.7,3.71-7.36
		c5.14-5.52,17.55-15.74,15.55-16.76c-2-1.12-13.98,5.42-22.98,12.98c-5.42,4.6-12.99,13.69-13.56,14.51
		c-0.71,0.82-1.43,1.12-2.14,0.82c-0.71-0.31-3.71-0.61-5.28-0.1c-1.71,0.51-1.71,0-0.86-1.23c0.86-1.23,21.98-24.83,24.12-27.08
		c0.29-0.41,1.14-0.82,2.43-0.51c1.28,0.2,3.42,0.1,5.28-0.31c1.71-0.41,1.57,0.31,1,1.02c-0.71,0.72-5.71,6.44-6.42,7.36
		c-0.29,0.31-0.29,0.41-0.14,0.41s0.71-0.41,1.14-0.72c0.86-0.61,6.42-4.19,10.13-6.03c3.71-1.84,10.13-4.09,13.13-2.35
		c3.57,2.04-1,7.77-3.85,10.22c-3,2.45-11.7,11.14-13.84,13.59c-2.14,2.35-3.42,4.91-1,5.52c3,0.72,12.13-5.52,17.84-9.91
		c5.57-4.39,14.56-11.96,16.41-13.9c1.43-1.64,3.14-0.51,2.28,0.41C804.24,406.07,794.96,413.94,789.4,418.23z"/>
	<path d="M834.63,418.13c-4.85,3.78-14.13,10.22-19.69,10.22c-3.85,0-5.14-3.07-5.14-5.62c0-1.43,0.29-2.86,0.86-4.29
		c-3.57,2.96-10.7,9.91-16.55,9.91c-3.85,0-6.71-2.96-6.71-6.74c0-8.89,20.83-24.53,32.39-24.53c3.85,0,5.42,1.84,5.42,3.68
		c1.57-1.53,2.71-2.55,3-2.55s2,0.51,4,0.51c1.43,0,2.43-0.51,3.28-0.51c0.43,0,0.71,0.2,0.71,0.41c0-0.2-4.57,5.31-11.7,13.49
		c-4.42,5.11-10.13,10.73-10.13,13.39c0,0.72,0.43,1.23,1.43,1.23c6.71,0,31.39-20.74,33.53-23.5c0.29-0.31,0.71-0.41,1.14-0.41
		c0.57,0,1.28,0.2,1.28,0.61c0,0.1-0.14,0.2-0.14,0.31C850.9,404.54,840.05,413.84,834.63,418.13z M820.5,398.61
		c-6.85,0-27.26,20.13-27.26,26.57c0,1.12,0.71,1.63,2,1.63c3.28,0,9.28-4.29,17.41-12.36c6.85-6.85,10.42-11.04,10.42-13.49
		c0-0.82-0.43-1.53-1.28-2.04C821.36,398.71,820.93,398.61,820.5,398.61z"/>
	<path d="M884.43,391.97h-15.84c-4.14,4.39-8.71,9.3-12.7,13.49c-9.56,10.22-19.98,19.62-16.84,21.36c3,1.64,13.13-5.31,19.26-10.12
		c6.14-4.8,14.98-12.47,16.27-13.59c0.57-0.51,1.14-0.51,1.57-0.31c0.29,0.31,0.43,0.82,0,1.33c-1,0.92-8.42,7.56-15.55,13.08
		c-7.14,5.62-17.12,13.28-23.4,10.83c-2.14-0.82-3.28-2.15-3.28-4.09c0-4.09,4.85-10.73,14.56-20.64c6.14-6.13,9.13-9.5,10.99-11.34
		h-12.27c-0.57,0-1-0.31-1-0.72s0.43-0.72,1-0.72h13.7c0.29-0.2,0.57-0.41,0.71-0.51c1.28-0.51,5.71-2.76,9.56-5.21
		c3.85-2.45,6.14-4.5,7.28-5.42c0.43-0.31,1.14-0.51,1.57-0.41c0.43,0,0.71,0.41,0,1.12c-0.71,0.71-4.85,5.01-9.99,10.42h14.41
		c0.57,0,1,0.31,1,0.72S885,391.97,884.43,391.97z"/>
	<path d="M906.12,418.85c-6.99,5.52-14.98,11.34-20.69,9.2c-3.42-1.23-4.28-3.78-3.57-6.95c-6.28,4.7-12.84,8.79-17.84,6.95
		c-2.57-1.02-3.71-2.66-3.71-4.9c0-3.07,2.14-6.95,5.57-11.24c4.28-5.21,11.99-12.26,12.84-12.98c0.71-0.72,1.28-1.02,2-0.72
		c0.71,0.31,4.42,0.2,5.85-0.1c1.28-0.31,1.86,0.41,1.28,0.92c-0.57,0.51-7.14,7.97-12.99,14.2c-5.99,6.23-11.42,12.47-8.56,13.8
		c3,1.23,12.56-5.01,18.27-11.55c6.71-7.66,10.99-12.16,15.41-16.55c0.71-0.72,1.28-1.02,2.14-0.72c0.71,0.31,4.28,0.2,5.71-0.1
		c1.28-0.31,1.85,0.41,1.28,0.92c-0.57,0.51-6.99,7.97-12.99,14.2c-5.85,6.23-11.42,12.47-8.42,13.8c2.85,1.23,10.42-4.29,16.7-8.99
		c6.42-4.8,17.12-14.41,17.69-15.02c0.43-0.31,1.14-0.41,1.57-0.2c0.57,0.1,0.86,0.61,0.14,1.33
		C922.96,404.95,913.26,413.33,906.12,418.85z"/>
	<path d="M941.23,419.05c-5.85,4.19-15.13,10.83-21.83,8.69c-2.85-0.82-3.85-2.45-3.85-4.39c0-2.86,2.28-6.34,4.71-8.89
		c4.28-4.29,12.56-10.73,10.99-11.55c-1.57-0.82-7.28,2.35-9.56,1.33c-2.28-0.92-1.14-3.78,1.43-6.74c2.14-2.55,5.99-5.31,7.85-4.7
		c1.85,0.61,1.14,3.17-0.43,4.7c-1.43,1.43-2.71,2.66-2.28,3.17c0.29,0.31,3.57-0.72,5.99-1.43c2.57-0.92,5.99-1.84,7.99-0.72
		c1.85,1.02,1.14,4.29-2.28,7.36c-3.42,3.07-12.13,11.14-15.27,14.41c-3,3.17-4.57,5.42-2.57,6.23c3.28,1.33,12.84-4.39,21.98-11.85
		c9.13-7.56,12.56-11.04,13.41-11.65c0.71-0.71,2.85-0.1,1.43,1.12C957.49,405.36,946.93,414.76,941.23,419.05z"/>
	<path d="M974.9,416.9c-6.85,4.9-20.83,13.08-28.54,11.24c-3.85-1.02-6.14-3.37-6.14-6.54c0-3.07,2.14-6.85,6.56-11.04
		c9.28-8.58,23.4-15.12,30.11-12.88c2,0.61,2.85,1.84,2.85,3.27c0,2.76-3.28,6.34-7.71,8.79c-5.14,2.86-13.7,5.52-20.12,5.72
		c-4.28,5.42-6.42,9.91-4,11.14c3,1.53,14.98-3.27,25.97-11.24c10.13-7.36,14.27-11.96,14.98-12.47c0.29-0.2,0.86-0.31,1.28-0.2
		c0.71,0.2,1.28,0.51,0.86,0.92C990.31,404.23,981.89,411.9,974.9,416.9z M956.21,410.67c-1.14,1.12-2.14,2.25-3,3.37
		c6.28,0,13.13-4.29,17.27-7.26c3.57-2.55,7.71-6.54,5.14-7.87C973.05,397.59,963.2,403.31,956.21,410.67z"/>
	<path d="M1144.43,349.26c0,3.07-3,8.69-14.13,18.19c-4.71,3.99-10.42,8.38-16.84,12.88c1.71,1.53,2.28,2.96,2.71,3.68
		c0.29,0.51,0,0.82-0.29,1.02c-0.57,0.1-1.71-0.1-2.14-0.72c-0.43-0.51-0.86-1.53-2.14-2.76c-0.86,0.61-1.85,1.23-2.85,1.84
		c-0.71,2.25-1.57,4.39-2.14,6.54c-3.71,11.75-9.42,27.49-26.69,34.85c-7.71,3.27-15.7,4.91-23.4,4.91c-9.7,0-18.84-2.55-25.4-7.66
		c-4.14-3.17-6.14-7.05-6.14-11.14c-4.14-1.23-6.56-3.58-8.13-6.23c-0.57-0.92-0.86-2.15-0.86-3.37c0-7.36,9.85-18.7,32.82-25.04
		c9.99-2.86,20.83-4.19,30.82-4.19c10.13,0,19.55,1.43,26.26,3.99c0.57-0.92,1-1.74,1.57-2.45c4.85-7.66,11.56-15.84,19.12-21.26
		c7.56-5.31,13.56-7.26,16.27-5.93C1143.71,346.9,1144.43,347.72,1144.43,349.26z M1097.91,375.52c-5.28-1.23-11.42-1.84-17.84-1.84
		c-10.13,0-20.98,1.43-30.4,4.09c-13.7,3.78-31.25,14.1-31.25,23.3c0,1.12,0.29,2.15,0.86,3.27c1.14,2.04,3.14,3.58,5.85,4.5
		c0.86-7.05,7.28-14.61,17.55-20.34c9.99-5.52,20.55-8.18,29.11-8.18c6.14,0,11.27,1.33,14.27,4.19c1.71,1.63,2.43,3.47,2.43,5.31
		c0,1.33-0.43,2.55-1,3.68c4.28-2.15,8.42-4.5,12.42-6.85c2-3.37,3.57-6.44,5.14-8.99C1103.05,376.85,1100.76,376.13,1097.91,375.52
		z M1085.21,396.88c-2.28,2.86-5.42,5.42-8.13,7.56c-6.56,5.11-12.84,7.05-14.41,7.56c-0.71,0.2-1.43,0.1-1.57-0.31
		c-0.14-0.41,0.29-0.92,2-1.53c3.14-1.23,10.42-4.7,14.55-8.38c0.71-0.61,1.57-1.53,2.57-2.45c-7.71,3.58-15.7,6.54-23.69,8.79
		c-9.99,2.76-17.41,3.88-23.12,3.88c-2,0-3.85-0.1-5.42-0.41c0,2.96,1.28,5.82,4.14,8.28c3.42,2.96,8.56,4.39,14.41,4.39
		c9.56,0,21.26-3.78,30.97-10.73c8.42-6.13,14.98-15.02,20.12-23.2C1093.63,392.58,1089.49,394.83,1085.21,396.88z M1085.92,389.21
		c0-1.64-0.86-3.27-2.71-4.5c-2-1.33-5.14-1.94-8.85-1.94c-9.7,0-23.55,3.99-31.96,9.71c-7.42,4.8-13.13,11.14-14.13,17.17
		c1.71,0.31,3.71,0.51,5.85,0.51c10.27,0,23.97-3.58,37.53-9.2c3.85-1.53,7.71-3.37,11.56-5.31
		C1084.78,393.5,1085.92,391.25,1085.92,389.21z M1122.31,359.17c-4.28,4.5-8.28,11.55-11.56,19.21c0.43,0.2,0.71,0.41,1,0.61
		c7.14-4.8,13.13-9.4,16.98-12.98c10.13-9.4,14.98-16.04,12.13-17.78C1137.86,346.6,1128.73,352.32,1122.31,359.17z"/>
	<path d="M1135.87,416.9c-6.85,4.9-20.83,13.08-28.54,11.24c-3.85-1.02-6.14-3.37-6.14-6.54c0-3.07,2.14-6.85,6.56-11.04
		c9.28-8.58,23.4-15.12,30.11-12.88c2,0.61,2.85,1.84,2.85,3.27c0,2.76-3.28,6.34-7.71,8.79c-5.14,2.86-13.7,5.52-20.12,5.72
		c-4.28,5.42-6.42,9.91-4,11.14c3,1.53,14.98-3.27,25.97-11.24c10.13-7.36,14.27-11.96,14.98-12.47c0.29-0.2,0.86-0.31,1.29-0.2
		c0.71,0.2,1.28,0.51,0.86,0.92C1151.28,404.23,1142.86,411.9,1135.87,416.9z M1117.17,410.67c-1.14,1.12-2.14,2.25-3,3.37
		c6.28,0,13.13-4.29,17.27-7.26c3.57-2.55,7.71-6.54,5.14-7.87C1134.01,397.59,1124.17,403.31,1117.17,410.67z"/>
	<path d="M1168.97,419.05c-5.85,4.19-15.13,10.83-21.83,8.69c-2.85-0.82-3.85-2.45-3.85-4.39c0-2.86,2.28-6.34,4.71-8.89
		c4.28-4.29,12.56-10.73,10.99-11.55c-1.57-0.82-7.28,2.35-9.56,1.33c-2.28-0.92-1.14-3.78,1.43-6.74c2.14-2.55,5.99-5.31,7.85-4.7
		c1.86,0.61,1.14,3.17-0.43,4.7c-1.43,1.43-2.71,2.66-2.28,3.17c0.29,0.31,3.57-0.72,5.99-1.43c2.57-0.92,5.99-1.84,7.99-0.72
		c1.85,1.02,1.14,4.29-2.28,7.36c-3.42,3.07-12.13,11.14-15.27,14.41c-3,3.17-4.57,5.42-2.57,6.23c3.28,1.33,12.84-4.39,21.98-11.85
		c9.13-7.56,12.56-11.04,13.41-11.65c0.71-0.71,2.85-0.1,1.43,1.12C1185.24,405.36,1174.68,414.76,1168.97,419.05z"/>
	<path d="M1193.95,418.85c-7.14,5.52-14.98,11.34-20.83,9.2c-2.57-1.02-3.71-2.66-3.71-4.9c0-3.07,2.14-6.95,5.57-11.24
		c4.28-5.21,11.99-12.26,12.84-12.98c0.71-0.72,1.28-1.02,2-0.72s4.42,0.31,5.85,0c1.28-0.31,1.86,0.41,1.28,0.92
		c-0.57,0.51-7.13,7.87-12.99,14.1c-5.99,6.23-11.42,12.47-8.56,13.8c3,1.23,10.56-4.29,16.84-8.99c6.42-4.8,17.12-14.41,17.7-15.02
		c0.29-0.31,1-0.41,1.57-0.2c0.57,0.1,0.86,0.61,0.14,1.33C1210.78,404.95,1200.94,413.33,1193.95,418.85z M1204.65,387.88
		c-2.85,0-4.71-1.84-4-4.09c0.86-2.25,3.71-4.09,6.56-4.09c3,0,4.71,1.84,4,4.09C1210.5,386.04,1207.5,387.88,1204.65,387.88z"/>
	<path d="M1227.34,416.9c-6.85,4.9-20.83,13.08-28.54,11.24c-3.85-1.02-6.14-3.37-6.14-6.54c0-3.07,2.14-6.85,6.56-11.04
		c9.28-8.58,23.4-15.12,30.11-12.88c2,0.61,2.85,1.84,2.85,3.27c0,2.76-3.28,6.34-7.71,8.79c-5.14,2.86-13.7,5.52-20.12,5.72
		c-4.28,5.42-6.42,9.91-4,11.14c3,1.53,14.98-3.27,25.97-11.24c10.13-7.36,14.27-11.96,14.98-12.47c0.29-0.2,0.86-0.31,1.29-0.2
		c0.71,0.2,1.28,0.51,0.86,0.92C1242.75,404.23,1234.33,411.9,1227.34,416.9z M1208.64,410.67c-1.14,1.12-2.14,2.25-3,3.37
		c6.28,0,13.13-4.29,17.27-7.26c3.57-2.55,7.71-6.54,5.14-7.87C1225.48,397.59,1215.63,403.31,1208.64,410.67z"/>
	<path d="M1263.3,413.33c-4.57,3.07-9.85,5.31-14.7,6.74c-1.14,1.74-2.85,3.58-5.42,5.11c-3.57,2.15-8.13,3.17-11.84,3.17
		c-2.57,0-4.71-0.51-5.99-1.33c-1.28-0.82-2.14-2.04-2.14-3.58c0-1.84,1.28-4.19,4.14-7.15c1.43-1.43,3.57-0.92,4,0.31
		c0.43,1.23,1.14,2.04,2.43,2.76c1.14,0.71,3.57,1.12,4.14,1.12c0.57,0,0.86-0.2,1.28-0.61c0.57-0.51,3.14-3.17,3.85-7.26
		c1.14-6.44-2.57-7.46-2.28-9.71c0.14-2.15,1.57-3.47,3.14-5.31c2.14-2.35,5.57-5.31,8.71-3.99c3,1.33,0.14,3.27-1.43,4.6
		c-1.43,1.23-3.42,2.45-3.71,3.99c-0.43,2.66,3.28,6.34,3.14,10.32c0,1.53-0.14,3.47-1,5.52c3.42-1.12,8.13-2.96,11.84-5.42
		c6.14-3.99,10.7-8.79,11.56-9.61c0.86-0.71,2.71,0.1,1.71,1.02C1272.71,406.07,1266.29,411.28,1263.3,413.33z M1231.9,420.38
		c-0.86-0.51-2-1.74-2.28-2.15c-0.29-0.41-0.57-0.1-0.86,0.1c-0.29,0.1-1.57,0.92-2.85,2.86c-1.28,2.04-0.43,4.39,1.43,5.21
		c1.71,0.72,4.14,0.31,6.42-1.23c1.43-1.02,3.28-2.86,2.57-3.07C1235.47,422.01,1232.76,420.99,1231.9,420.38z"/>
</g>
</svg>
